<svg xmlns="http://www.w3.org/2000/svg" width="40" height="40" fill="none" viewBox="0 0 40 40"><mask id="mask0_1_85vvaccee" width="40" height="40" x="0" y="0" maskUnits="userSpaceOnUse" style="mask-type:alpha"><circle cx="20" cy="20" r="20" fill="#D9D9D9"/></mask><g clip-path="url(#clip0_1_85aecccaq)" mask="url(#mask0_1_85vvaccee)"><path fill="#012169" d="M60 0h-80v40h80V0Z"/><mask id="mask1_1_85" width="40" height="20" x="-20" y="0" maskUnits="userSpaceOnUse" style="mask-type:luminance"><path fill="#fff" d="M-20 0h40v20h-40V0Z"/></mask><g mask="url(#mask1_1_85)"><path fill="#000" d="m-20 0 40 20Zm0 20L20 0Z"/><path stroke="#fff" stroke-width="4" d="m-20 0 40 20m-40 0L20 0"/></g><mask id="mask2_1_85" width="40" height="20" x="-20" y="0" maskUnits="userSpaceOnUse" style="mask-type:luminance"><path fill="#fff" d="M-20 0 0 10h-20V0ZM0 0h20L0 10V0Zm0 10h20v10L0 10Zm0 0v10h-20L0 10Z"/></mask><g mask="url(#mask2_1_85)"><path fill="#000" d="m-20 0 40 20Zm0 20L20 0Z"/><path stroke="#C8102E" stroke-width="2.667" d="m-20 0 40 20m-40 0L20 0"/></g><mask id="mask3_1_85" width="40" height="20" x="-20" y="0" maskUnits="userSpaceOnUse" style="mask-type:luminance"><path fill="#fff" d="M-20 0h40v20h-40V0Z"/></mask><g mask="url(#mask3_1_85)"><path fill="#000" d="M0 0v20Zm-20 10h40Z"/><path stroke="#fff" stroke-width="6.667" d="M0 0v20m-20-10h40"/></g><mask id="mask4_1_85" width="40" height="20" x="-20" y="0" maskUnits="userSpaceOnUse" style="mask-type:luminance"><path fill="#fff" d="M-20 0h40v20h-40V0Z"/></mask><g mask="url(#mask4_1_85)"><path fill="#000" d="M0 0v20Zm-20 10h40Z"/><path stroke="#C8102E" stroke-width="4" d="M0 0v20m-20-10h40"/></g><path fill="#fff" d="m40.578 8.796-.89-1.225 3.339-.554-2.449 1.779Z"/><path fill="#fff" d="M40 7.017V8.53l-3.027-1.513H40Z"/><path fill="#fff" d="m39.422 8.796.89-1.225-3.339-.554 2.449 1.779Z"/><path fill="#fff" d="m40.935 7.696-1.439.468 2.375 2.41-.936-2.878Z"/><path fill="#fff" d="m39.422 8.796.89-1.225 1.559 3.004-2.449-1.78Z"/><path fill="#fff" d="m39.065 7.696 1.439.468L40 4.818l-.935 2.878Z"/><path fill="#fff" d="m40.935 7.696-1.439.468L40 4.818l.935 2.878Z"/><path fill="#fff" d="m39.065 7.696 1.439.468-2.375 2.41.936-2.878Z"/><path fill="#fff" d="m40.578 8.796-.89-1.225-1.559 3.004 2.45-1.78Z"/><path fill="#C8102E" d="m40.382 8.526-.588-.81L42 7.35l-1.618 1.176Z"/><path fill="#C8102E" d="M40 7.35v1l-2-1h2Z"/><path fill="#C8102E" d="m39.618 8.526.588-.81L38 7.35l1.618 1.176Z"/><path fill="#C8102E" d="m40.618 7.8-.951.308 1.57 1.593-.619-1.902Z"/><path fill="#C8102E" d="m39.618 8.526.588-.81 1.03 1.985-1.618-1.175Z"/><path fill="#C8102E" d="m39.382 7.8.951.308L40 5.898l-.618 1.901Z"/><path fill="#C8102E" d="m40.618 7.8-.951.308.333-2.21.618 1.901Z"/><path fill="#C8102E" d="m39.382 7.8.951.308-1.57 1.593.619-1.902Z"/><path fill="#C8102E" d="m40.382 8.526-.588-.81-1.03 1.985 1.618-1.175Z"/><path fill="#fff" d="M30.758 16.316v1.513l3.026-1.514h-3.026Z"/><path fill="#fff" d="m31.335 18.095-.889-1.225 3.338-.555-2.448 1.78Z"/><path fill="#fff" d="M30.758 16.316v1.513l-3.027-1.514h3.026Z"/><path fill="#fff" d="m30.18 18.095.889-1.225-3.338-.555 2.448 1.78Z"/><path fill="#fff" d="m31.693 16.995-1.44.468 2.375 2.41-.935-2.878Z"/><path fill="#fff" d="m30.18 18.095.889-1.225 1.56 3.004-2.45-1.78Z"/><path fill="#fff" d="m29.822 16.995 1.44.468-.505-3.347-.935 2.88Z"/><path fill="#fff" d="m31.693 16.995-1.44.468.505-3.347.935 2.88Z"/><path fill="#fff" d="m29.822 16.995 1.44.468-2.375 2.41.935-2.878Z"/><path fill="#fff" d="m31.335 18.095-.889-1.225-1.56 3.004 2.45-1.78Z"/><path fill="#C8102E" d="M30.758 16.65v1l2-1h-2Z"/><path fill="#C8102E" d="m31.14 17.825-.588-.81 2.206-.366-1.619 1.176Z"/><path fill="#C8102E" d="M30.758 16.65v1l-2-1h2Z"/><path fill="#C8102E" d="m30.376 17.825.587-.81-2.206-.366 1.619 1.176Z"/><path fill="#C8102E" d="m31.376 17.098-.952.31L31.994 19l-.618-1.902Z"/><path fill="#C8102E" d="m30.376 17.825.587-.81L31.993 19l-1.617-1.175Z"/><path fill="#C8102E" d="m30.14 17.098.95.31-.332-2.212-.618 1.902Z"/><path fill="#C8102E" d="m31.376 17.098-.952.31.334-2.212.618 1.902Z"/><path fill="#C8102E" d="m30.14 17.098.95.31L29.521 19l.619-1.902Z"/><path fill="#C8102E" d="m31.14 17.825-.588-.81L29.522 19l1.618-1.175Z"/><path fill="#fff" d="m40.642 32.883-.988-1.359 3.706-.616-2.718 1.975Z"/><path fill="#fff" d="M40 30.908v1.68l-3.36-1.68H40Z"/><path fill="#fff" d="m39.358 32.883.988-1.359-3.706-.616 2.718 1.975Z"/><path fill="#fff" d="m41.038 31.663-1.597.519 2.636 2.676-1.039-3.195Z"/><path fill="#fff" d="m39.358 32.883.988-1.359 1.73 3.334-2.718-1.975Z"/><path fill="#fff" d="m38.962 31.663 1.597.519L40 28.467l-1.038 3.196Z"/><path fill="#fff" d="m41.038 31.663-1.597.519.559-3.715 1.038 3.196Z"/><path fill="#fff" d="m38.962 31.663 1.597.519-2.636 2.676 1.039-3.195Z"/><path fill="#fff" d="m40.642 32.883-.988-1.359-1.73 3.334 2.718-1.975Z"/><path fill="#C8102E" d="m40.446 32.613-.686-.944 2.573-.427-1.887 1.371Z"/><path fill="#C8102E" d="M40 31.242v1.166l-2.333-1.166H40Z"/><path fill="#C8102E" d="m39.554 32.613.686-.944-2.573-.427 1.887 1.371Z"/><path fill="#C8102E" d="m40.721 31.766-1.11.36 1.831 1.859-.721-2.22Z"/><path fill="#C8102E" d="m39.554 32.613.686-.944 1.202 2.316-1.888-1.372Z"/><path fill="#C8102E" d="m39.279 31.766 1.11.36-.389-2.58-.721 2.22Z"/><path fill="#C8102E" d="m40.721 31.766-1.11.36.389-2.58.721 2.22Z"/><path fill="#C8102E" d="m39.279 31.766 1.11.36-1.831 1.859.72-2.22Z"/><path fill="#C8102E" d="m40.446 32.613-.686-.944-1.202 2.316 1.888-1.372Z"/><g clip-path="url(#clip1_1_85)"><path fill="#B31942" d="M-10 0h76v40h-76"/><path fill="#000" d="M-10 4.615h76Zm76 6.154h-76Zm-76 6.154h76Zm76 6.154h-76Zm-76 6.154h76Zm76 6.154h-76Z"/><path stroke="#fff" stroke-width="3.077" d="M-10 4.615h76m0 6.154h-76m0 6.154h76m0 6.154h-76m0 6.154h76m0 6.154h-76"/><path fill="#0A3161" d="M-10 0h30.4v21.538H-10"/><path fill="#fff" d="m.133 3.077.724 2.226-1.894-1.376h2.34L-.59 5.303l.723-2.226ZM.133 7.385.857 9.61l-1.894-1.376h2.34L-.59 9.611l.723-2.226ZM.133 11.692l.724 2.227-1.894-1.376h2.34L-.59 13.919l.723-2.227ZM.133 16l.724 2.227-1.894-1.377h2.34L-.59 18.227.133 16ZM2.667.923 3.39 3.15 1.496 1.774h2.341L1.943 3.15 2.667.923ZM2.667 5.23l.723 2.227-1.894-1.376h2.341L1.943 7.457l.724-2.226ZM2.667 9.538l.723 2.227-1.894-1.376h2.341l-1.894 1.376.724-2.227ZM2.667 13.846l.723 2.227-1.894-1.376h2.341l-1.894 1.376.724-2.227ZM2.667 18.154l.723 2.226-1.894-1.376h2.341L1.943 20.38l.724-2.226ZM5.2 3.077l.723 2.226L4.03 3.927h2.342L4.477 5.303 5.2 3.077ZM5.2 7.385l.723 2.226L4.03 8.235h2.342L4.477 9.611 5.2 7.385ZM5.2 11.692l.723 2.227-1.894-1.376h2.342l-1.894 1.376.723-2.227ZM5.2 16l.723 2.227L4.03 16.85h2.342l-1.894 1.377L5.2 16ZM7.733.923l.724 2.227-1.894-1.376h2.34L7.01 3.15 7.733.923ZM7.733 5.23l.724 2.227-1.894-1.376h2.34L7.01 7.457l.723-2.226ZM7.733 9.538l.724 2.227-1.894-1.376h2.34L7.01 11.765l.723-2.227ZM7.733 13.846l.724 2.227-1.894-1.376h2.34L7.01 16.073l.723-2.227ZM7.733 18.154l.724 2.226-1.894-1.376h2.34L7.01 20.38l.723-2.226ZM10.267 3.077l.723 2.226-1.894-1.376h2.341L9.543 5.303l.724-2.226ZM10.267 7.385l.723 2.226-1.894-1.376h2.341L9.543 9.611l.724-2.226ZM10.267 11.692l.723 2.227-1.894-1.376h2.341l-1.894 1.376.724-2.227ZM10.267 16l.723 2.227-1.894-1.377h2.341l-1.894 1.377.724-2.227ZM12.8.923l.723 2.227-1.893-1.376h2.34L12.077 3.15 12.8.923ZM12.8 5.23l.723 2.227-1.893-1.376h2.34l-1.893 1.376.723-2.226ZM12.8 9.538l.723 2.227-1.893-1.376h2.34l-1.893 1.376.723-2.227ZM12.8 13.846l.723 2.227-1.893-1.376h2.34l-1.893 1.376.723-2.227ZM12.8 18.154l.723 2.226-1.893-1.376h2.34l-1.893 1.376.723-2.226ZM15.333 3.077l.724 2.226-1.894-1.376h2.34L14.61 5.303l.723-2.226ZM15.333 7.385l.724 2.226-1.894-1.376h2.34L14.61 9.611l.723-2.226ZM15.333 11.692l.724 2.227-1.894-1.376h2.34l-1.893 1.376.723-2.227ZM15.333 16l.724 2.227-1.894-1.377h2.34l-1.893 1.377.723-2.227ZM17.867.923l.723 2.227-1.894-1.376h2.341L17.143 3.15l.724-2.227ZM17.867 5.23l.723 2.227-1.894-1.376h2.341l-1.894 1.376.724-2.226ZM17.867 9.538l.723 2.227-1.894-1.376h2.341l-1.894 1.376.724-2.227ZM17.867 13.846l.723 2.227-1.894-1.376h2.341l-1.894 1.376.724-2.227ZM17.867 18.154l.723 2.226-1.894-1.376h2.341l-1.894 1.376.724-2.226Z"/></g></g><defs><clipPath id="clip0_1_85aecccaq"><path fill="#fff" d="M-20 0h80v40h-80z"/></clipPath><clipPath id="clip1_1_85"><path fill="#fff" d="M-10 0h76v40h-76z"/></clipPath></defs></svg>
